<svg  xmlns="http://www.w3.org/2000/svg" height="40" width="160" viewBox="0 0 160 40"><path d="M43.68,23.62c.72-.43,1.08-.21,1.08.65A34.57,34.57,0,0,1,39.34,33q-1.08.66-1.08-.87C41.15,28.33,43,25.5,43.68,23.62Zm-4.34-7.37a49.77,49.77,0,0,1,5.42,3.68c.15.87-.14,1.24-.86,1.09q-3.26-2.39-5.43-3.69Q37.83,16,39.34,16.25ZM40,8.87a51.84,51.84,0,0,1,5,3.47c.15.87-.14,1.23-.87,1.09a39.1,39.1,0,0,0-4.77-3.26C38.91,9.3,39.12,8.87,40,8.87Zm8.68,13.89c.43-.73.87-.73,1.3,0Q50.41,31,44.55,34c-.87,0-1.09-.37-.65-1.09Q49.11,30.13,48.67,22.76ZM53.88,8.65c.57,1.3,1,2.39,1.3,3.26h8.68c.72.43.72.87,0,1.3H53.66a33.4,33.4,0,0,1-4.34,6.07c-.29.58-.07.8.65.65a96.84,96.84,0,0,0,10.2-.65c-.73-1-1.74-2.45-3-4.34-.15-.86.22-1.15,1.09-.86a47,47,0,0,1,5.2,8c-.14.73-.58.87-1.3.44-.43-.72-.87-1.37-1.3-1.95-5.35.29-9,.5-11.07.65s-2.82-.44-2.38-1.74a31.35,31.35,0,0,0,4.77-6.29H45.85c-.58-.43-.58-.87,0-1.3h7.81A10.84,10.84,0,0,0,52.57,9.3C52.57,8.29,53,8.07,53.88,8.65Zm1.3,13.45V33.6c-.44.73-.87.73-1.3,0V22.1C54.31,21.53,54.74,21.53,55.18,22.1Zm5,.44v8.89c0,1,.36,1.45,1.08,1.31h.44c.86.28,1.23-1.45,1.08-5.21.44-.58.87-.58,1.3,0,.15,4.48-.65,6.65-2.38,6.51h-.87c-1.3.14-2-.51-2-2V22.54C59.3,22,59.73,22,60.17,22.54Z"/><path d="M75.49,8.65c.72-.72,1.15-.65,1.3.22l-.65,1.74H93.06c.58.43.58.86,0,1.3H83.3V18h9.32c.58.44.58.87,0,1.3H83.3v6.51H93.49c.58.44.58.87,0,1.3H83.3v6.73c-.44.58-.87.58-1.31,0V27.09H69.84c-.72-.43-.72-.86,0-1.3h3.69V20.37a2.08,2.08,0,0,1,2-2.39H82V11.91h-6.5a22.61,22.61,0,0,1-5.21,6.51c-1,.14-1.3-.22-.87-1.09A21.63,21.63,0,0,0,75.49,8.65ZM82,25.79V19.28H75.92c-.72,0-1.09.44-1.09,1.31v5.2Z"/><path d="M101.87,9.3h15.62q3.47.22,1.52,2a24.86,24.86,0,0,1-7.6,5.2q-.64.43,0,.87a19.08,19.08,0,0,1,3,2.82H124c.58.44.58.87,0,1.3h-9.11q2.16,5.43.43,9.33-3.9,5.43-11.93.87c-.44-1-.15-1.45.86-1.3q6.3,3.9,9.55,0,1.74-3.26-.43-8.9H99.05c-.58-.43-.58-.86,0-1.3H112.5a13.83,13.83,0,0,0-3-2.38,1.33,1.33,0,0,1,0-1.74,51.64,51.64,0,0,0,7.81-4.77c.44-.44.29-.65-.43-.65h-15C101.29,10.17,101.29,9.74,101.87,9.3Z"/><path d="M132.37,27.09c.72-.43,1.16-.21,1.3.66A30.09,30.09,0,0,1,130,33.39c-.87.28-1.24,0-1.09-.87A24.4,24.4,0,0,0,132.37,27.09Zm-.87-18h9.12c.72.43.72.86,0,1.3h-3.91v3H138c1.59,0,2.32.72,2.17,2.17v3c.15,1.59-.58,2.32-2.17,2.17h-1.3v3.47h4.34c.58.44.58.87,0,1.31H131.5c-1.44.14-2.17-.58-2.17-2.17V11.26A1.92,1.92,0,0,1,131.5,9.09Zm3.91,1.3h-3.47a1.15,1.15,0,0,0-1.3,1.3V23c0,1,.43,1.45,1.3,1.3h3.47V20.8h-1.3a1.73,1.73,0,0,1-2.17-1.73V15.6a1.92,1.92,0,0,1,2.17-2.17h1.3Zm2.17,4.34h-3a1.15,1.15,0,0,0-1.3,1.3v2.6c0,.73.43,1,1.3.87h3c1,.15,1.44-.29,1.3-1.3V16C139,15.16,138.59,14.73,137.58,14.73Zm-.65,13c.29-.73.72-.87,1.3-.44a28.78,28.78,0,0,1,1.3,6.08c-.29.57-.72.65-1.3.21A31.63,31.63,0,0,0,136.93,27.75Zm7.16-18.66h6.51c1.59,0,2.31.72,2.17,2.17V15.6c.14,1.59-.58,2.31-2.17,2.17h-7.38v5.64c0,1,.43,1.44,1.3,1.3h5.86q2.18.43,2-4.34a.81.81,0,0,1,1.3,0q.23,6.07-3,5.64h-6.51c-1.45.15-2.17-.58-2.17-2.17V11.26A1.92,1.92,0,0,1,144.09,9.09Zm0,18.22A27.82,27.82,0,0,1,146,33.17c-.29.72-.72.87-1.3.43a35.82,35.82,0,0,0-2-5.85C143.07,27,143.51,26.88,144.09,27.31Zm6.07-16.92h-5.64a1.15,1.15,0,0,0-1.3,1.3v4.77h6.94c1,.15,1.45-.28,1.3-1.3V11.69C151.61,10.82,151.17,10.39,150.16,10.39Zm.22,16.7c1.16,2.17,2.1,4.13,2.82,5.86-.15.87-.58,1.09-1.3.65-.87-2-1.81-4.05-2.82-6.07C149.22,26.81,149.66,26.66,150.38,27.09Z"/><path d="M8.37,28.25a1,1,0,0,0-.43-.32,1.25,1.25,0,0,0-.54-.12,1,1,0,0,0-.85.42V26.7H6V31h.49V30.6a1,1,0,0,0,.86.46,1.21,1.21,0,0,0,1-.44,1.74,1.74,0,0,0,.4-1.23,2.08,2.08,0,0,0-.09-.63A1.75,1.75,0,0,0,8.37,28.25Zm-.44,2.08a.77.77,0,0,1-.6.3.76.76,0,0,1-.67-.41,1.64,1.64,0,0,1-.16-.81,1.31,1.31,0,0,1,.26-.87.73.73,0,0,1,.59-.3.75.75,0,0,1,.59.29,1.42,1.42,0,0,1,.24.9A1.36,1.36,0,0,1,7.93,30.33Z"/><rect x="9.8" y="26.7" width="0.53" height="4.29"/><path d="M12.86,27.81a1.4,1.4,0,0,0-1,.35,1.59,1.59,0,0,0-.48,1.28,1.66,1.66,0,0,0,.4,1.2,1.4,1.4,0,0,0,1.06.42,1.49,1.49,0,0,0,.75-.19,1.26,1.26,0,0,0,.52-.53,2.09,2.09,0,0,0,.18-.95,1.6,1.6,0,0,0-.4-1.16A1.42,1.42,0,0,0,12.86,27.81Zm.65,2.52a.87.87,0,0,1-1.31,0,1.67,1.67,0,0,1,0-1.79.82.82,0,0,1,.66-.29.86.86,0,0,1,.65.29,1.32,1.32,0,0,1,.26.88A1.37,1.37,0,0,1,13.51,30.33Z"/><path d="M17.43,28.25a1.11,1.11,0,0,0-.9-.44,1.29,1.29,0,0,0-.72.2,1.32,1.32,0,0,0-.47.59,2,2,0,0,0-.16.82,1.81,1.81,0,0,0,.35,1.11,1.18,1.18,0,0,0,1,.46,1.08,1.08,0,0,0,.87-.41,4.24,4.24,0,0,1,0,.68.74.74,0,0,1-.27.41.94.94,0,0,1-.57.15.86.86,0,0,1-.53-.15.48.48,0,0,1-.18-.35l-.52-.07a.86.86,0,0,0,.34.75,1.44,1.44,0,0,0,.9.25,1.55,1.55,0,0,0,.78-.17,1.09,1.09,0,0,0,.47-.48,2.53,2.53,0,0,0,.15-1V27.88h-.49Zm-.25,2a.75.75,0,0,1-.61.28.78.78,0,0,1-.61-.28,1.33,1.33,0,0,1-.24-.89,1.23,1.23,0,0,1,.25-.85.74.74,0,0,1,.59-.28.78.78,0,0,1,.62.29,1.32,1.32,0,0,1,.25.86A1.24,1.24,0,0,1,17.18,30.27Z"/><rect x="19.32" y="30.39" width="0.6" height="0.6"/><polygon points="21.9 26.7 21.33 26.7 21.33 30.99 24.01 30.99 24.01 30.48 21.9 30.48 21.9 26.7"/><rect x="25.08" y="26.7" width="0.53" height="0.61"/><rect x="25.08" y="27.88" width="0.53" height="3.11"/><path d="M28.84,27.88v1.67a1.58,1.58,0,0,1-.09.6.73.73,0,0,1-.29.34.89.89,0,0,1-.45.12.65.65,0,0,1-.4-.12.63.63,0,0,1-.21-.33,3.2,3.2,0,0,1,0-.55V27.88h-.53v1.93a2,2,0,0,0,0,.49,1,1,0,0,0,.16.39.82.82,0,0,0,.35.27,1.27,1.27,0,0,0,.52.1,1.12,1.12,0,0,0,1-.53V31h.48V27.88Z"/><path d="M22.42,14.67v0a4.48,4.48,0,0,0-8.95-.08h0a4.48,4.48,0,1,0,0,9l8.43.08a4.47,4.47,0,0,0,.51-8.92ZM21,22.42l-6.57-.06a3.48,3.48,0,0,1,0-7h0a3.48,3.48,0,0,1,7,.06v0A3.48,3.48,0,0,1,21,22.42Z"/></svg>